# xmcd
#
# Track frame offsets: 
#        150
#        4580
#        16665
#        25108
#        33794
#        36212
#        45923
#        56090
#        62613
#        65402
#
# Disc length: 942 seconds
#
# Revision: 0
# Processed by: cddbd v1.5.2PL0 Copyright (c) Steve Scherf et al.
# Submitted via: ExactAudioCopy v0.99pb3
#
DISCID=6b03ac0a
DTITLE=MURS - The End of The Beginning... Sampler CD
DYEAR=2003
DGENRE=Hip-Hop
TTITLE0=Intro
TTITLE1=God's Work
TTITLE2=Def Cover
TTITLE3=Freestyle
TTITLE4=Reverse (Interlude)
TTITLE5=What Do You Know?
TTITLE6=Transitionz Az A Ridah
TTITLE7=You and I
TTITLE8=Outro (Interlude)
TTITLE9=Riskey Business
EXTD=
EXTT0=
EXTT1=
EXTT2=
EXTT3=
EXTT4=
EXTT5=
EXTT6=
EXTT7=
EXTT8=
EXTT9=
PLAYORDER=
